<?xml version="1.0" encoding="utf-8"?>
<!-- Generator: Adobe Illustrator 23.1.1, SVG Export Plug-In . SVG Version: 6.00 Build 0)  -->
<svg version="1.1" id="Logo" xmlns="http://www.w3.org/2000/svg" xmlns:xlink="http://www.w3.org/1999/xlink" x="0px" y="0px"
	 viewBox="0 0 675 122.1" style="enable-background:new 0 0 675 122.1;" xml:space="preserve">
<style type="text/css">
	.st0{fill:#0770E3;}
</style>
<g>
	<path class="st0" d="M137.2,27.4h16.4c0.6,0,1.1,0.4,1.4,0.9l16.3,41.8l15.8-41.8c0.2-0.6,0.8-0.9,1.4-0.9h16.1
		c1.1,0,1.8,1.1,1.3,2l-40,91.8c-0.2,0.5-0.8,0.9-1.3,0.9h-14.2c-1,0-1.8-1.1-1.3-2L162.8,88L136,29.4
		C135.4,28.5,136.1,27.4,137.2,27.4z"/>
	<path class="st0" d="M379.3,36.6v-7.8c0-0.8,0.7-1.5,1.5-1.5h14.5c0.8,0,1.5,0.7,1.5,1.5v62.3c0,0.8-0.7,1.5-1.5,1.5h-14.5
		c-0.8,0-1.5-0.7-1.5-1.5v-8.2c-3.1,4.8-9.9,11.1-21,11.1c-21.2,0-32.2-16.2-32.2-34.3c0-23.6,16.4-33.7,31.7-33.7
		C367.9,26,374.9,30.7,379.3,36.6z M343.6,59.8c0,11.2,6.9,19.8,18,19.8c11,0,18.2-7.5,18.2-19s-6.9-20.3-18.7-20.3
		C350,40.3,343.6,48.9,343.6,59.8z"/>
	<path class="st0" d="M409.9,91.1V28.8c0-0.8,0.7-1.5,1.5-1.5h14.5c0.8,0,1.5,0.7,1.5,1.5v8.5c3.4-5.9,9.8-11.3,20.7-11.3
		c11.2,0,23.7,5.5,23.7,30.8v34.3c0,0.8-0.7,1.5-1.5,1.5h-14.5c-0.8,0-1.5-0.7-1.5-1.5v-34c0-6.1-1.5-16.6-12.3-16.6
		s-14.6,9.5-14.6,18.3v32.3c0,0.8-0.7,1.5-1.5,1.5h-14.5C410.5,92.5,409.9,91.9,409.9,91.1z"/>
	<path class="st0" d="M484.2,91.1V28.8c0-0.8,0.7-1.5,1.5-1.5h14.5c0.8,0,1.5,0.7,1.5,1.5v8.5c3.4-5.9,9.8-11.3,20.7-11.3
		c11.2,0,23.7,5.5,23.7,30.8v34.3c0,0.8-0.7,1.5-1.5,1.5H530c-0.8,0-1.5-0.7-1.5-1.5v-34c0-6.1-1.5-16.6-12.3-16.6
		c-10.8,0-14.6,9.5-14.6,18.3v32.3c0,0.8-0.7,1.5-1.5,1.5h-14.5C484.9,92.5,484.2,91.9,484.2,91.1z"/>
	<path class="st0" d="M636.5,27.4h14.1c0.8,0,1.5,0.7,1.5,1.5v12.9c2.8-12.8,13.8-17.2,21.8-15.3c0.7,0.1,1.1,0.7,1.1,1.4v14.2
		c0,0.9-0.8,1.6-1.8,1.4c-14.8-2.9-20.8,5.1-20.8,16.3c0,8,0,26.1,0,31.4c0,0.8-0.7,1.5-1.5,1.5h-14.5c-0.8,0-1.5-0.7-1.5-1.5V28.9
		C635,28,635.7,27.4,636.5,27.4z"/>
	<path class="st0" d="M41.1,41.5c-4.5-1.5-6.9-2.4-10.5-3.6c-3.7-1.3-10-4.9-10-10.7c0-5.8,4-9.5,12.1-9.5c7.4,0,11.5,3.6,14.2,9.4
		c0.4,0.8,1.3,1.1,2.1,0.7l11.9-6.9c0.6-0.4,0.9-1.2,0.6-1.9c-3.6-7.9-12-17.4-28.6-17.4c-18.5,0-30.1,11-30.1,25.5
		S12.3,49,25.2,53.4c4.7,1.6,6.6,2.3,10.6,3.6c7.6,2.6,11.1,6,11.1,10.7S43.9,78,32.1,78c-10.8,0-14.6-5.7-16.8-11.1
		c-0.3-0.8-1.3-1.2-2.1-0.7L0.7,73.4c-0.6,0.4-0.9,1.1-0.6,1.8C4.9,87,18,94,32.7,94c17.3,0,31.9-8.8,31.9-26.6
		C64.6,49.6,45.6,43,41.1,41.5z"/>
	<path class="st0" d="M136.6,75.5c-0.4-0.7-1.4-1-2.1-0.5c-5.6,4.1-12.2,4.2-17.2-3.5C113.1,65,108,57,108,57l22-27.3
		c0.8-1,0.1-2.4-1.1-2.4h-17.2c-0.5,0-0.9,0.2-1.2,0.6L91.5,54V1.5C91.5,0.7,90.8,0,90,0H75.5C74.7,0,74,0.7,74,1.5v89.6
		c0,0.8,0.7,1.5,1.5,1.5H90c0.8,0,1.5-0.7,1.5-1.5V62c0,0,9.7,15.3,13.4,21c5,7.8,12,11,19.6,11c7.2,0,11.8-1.9,17.3-7.3
		c0.5-0.5,0.6-1.2,0.3-1.8L136.6,75.5z"/>
	<path class="st0" d="M240.7,54.9c-4.6-1.7-6.2-2.3-9.7-3.6s-6.6-3.2-6.6-6s2.6-5.9,7.9-5.9c4.6,0,7.4,1.8,9,5c0.4,0.8,1.3,1,2,0.6
		l10.2-5.9c0.7-0.4,0.9-1.3,0.5-2c-2.8-4.9-8.3-11.1-21.6-11.1c-16.3,0-24.7,9.4-24.7,19.8s8.5,15.3,16.3,18.4
		c8.8,3.6,9.4,3.8,10.5,4.2c2.7,1.1,6,2.8,6,5.9c0,3.1-3.6,5.9-9.1,5.9c-5.1,0-10.9-2.1-13.3-8c-0.3-0.8-1.3-1.2-2.1-0.7l-10.3,5.9
		c-0.6,0.4-0.9,1.1-0.6,1.8c3,7.8,11.9,14.7,26.3,14.7c15.6,0,26-8.3,26-20S249.4,58.1,240.7,54.9z"/>
	<path class="st0" d="M299.3,41.6c6.5,0,11.3,2,15.8,5.2c0.7,0.5,1.7,0.3,2.1-0.4l6-10.4c0.4-0.7,0.2-1.5-0.5-1.9
		c-6.2-4.2-13.9-8.1-24.3-8.1c-10.3,0-19.8,2.8-26.6,9.7c-6.8,6.8-9.9,14.9-9.9,24.5c0,11.6,4.8,19,10,24.2s14.6,9.6,26.6,9.6
		c10.8,0,18.8-4.5,24.3-8.1c0.6-0.4,0.8-1.3,0.4-1.9l-5.9-10.3c-0.4-0.7-1.4-1-2.1-0.5c-3.9,2.8-9.5,5.2-15.8,5.2
		c-7.1,0-20-4-20-18.4S292.2,41.6,299.3,41.6z"/>
	<path class="st0" d="M593.5,79.5c-5.8,0-11.3-1.4-15.3-4.6c-4-3.2-5.9-6.5-5.9-10.4h51.8c0.8,0,1.5-0.7,1.5-1.5
		c-0.3-15.4-5.3-22.6-10.1-27.5c-5-5-13.5-9.6-24.7-9.6c-11.1,0-19.8,4.1-25.7,9.9c-5.8,5.8-10.2,13.2-10.2,24.4s4.5,18.6,10,24.1
		s14.5,9.6,27.4,9.6c12.2,0,22.5-4.3,29.9-12.8c0.6-0.7,0.4-1.8-0.4-2.2l-10.3-6c-0.5-0.3-1.2-0.3-1.7,0.2
		C604.7,77.9,598.2,79.5,593.5,79.5z M590.7,40c8.3,0,15.9,5,17.1,14h-34.9C575.2,44.2,582.4,40,590.7,40z"/>
</g>
</svg>
